<?xml version="1.0" encoding="utf-8"?>
<!-- Generator: Adobe Illustrator 23.0.3, SVG Export Plug-In . SVG Version: 6.00 Build 0)  -->
<svg version="1.1" id="Layer_1" xmlns="http://www.w3.org/2000/svg" xmlns:xlink="http://www.w3.org/1999/xlink" x="0px" y="0px"
	 viewBox="0 0 450 356" style="enable-background:new 0 0 450 356;" xml:space="preserve">
<style type="text/css">
	.st0{fill:#477491;}
	.st1{fill:#171A21;}
</style>
<path class="st0" d="M195,355.8c0.3-0.6,0.6-1.3,0.8-1.9l-5.9,1.9H195z"/>
<path class="st0" d="M254.7,255.5c-2.2-3.9-3-8.5-3.8-13.4c-0.4-2.1-0.8-4.3-1.2-6.4c-0.5-2-0.8-4.2-1.2-6.2
	c-0.7-4.3-1.5-8.7-3.3-12.7c-5.6-12.5-11.8-39.4-11.8-39.4c0.1-0.9-6.5-5.9-7.6-5.9c-1.4,0-3.6,0.1-4.1-0.5
	c-9.5-9.9-21.7-14.7-33.5-19.4c-3-1.2-6.2-2.4-9.2-3.7c-23.8-10.2-48-20.4-71.5-30.3c-9.7-4.1-19.4-8.2-29.1-12.3
	c-0.8-0.3-1.7,0-2.1,0.8c-0.4,0.8-0.2,1.7,0.5,2.2l69.8,48.1c-7.4,0-14.7,0-22-0.1c-3.9,0-7.8-0.1-11.7-0.1c-3.8,0-7.5,0.1-11.1,0.2
	c-16.1,0.8-31.1,3.4-45.5,8c-2.9,0.9-5.7,1.9-8.6,3c-0.6,0.2-1,0.8-1.1,1.4c-0.1,0.6,0.2,1.2,0.7,1.6L68,185
	c-1.5,0.5-3.1,0.9-4.6,1.4c-22.6,7-41.9,16.9-58.8,30.3c-0.5,0.4-0.7,1.1-0.6,1.7c0.1,0.6,0.6,1.1,1.1,1.3l15.5,4.9L0,356h78.1
	l0-0.2h111.8l5.9-1.9c0.3-0.7,0.6-1.3,0.9-1.9c1.1-2.4,2.1-4.8,3.2-7.2c0.5-1,0.9-2.1,1.4-3.1c0.7-1.6,1.4-3.1,2.1-4.7
	c1.1-2.7,2.1-5.4,2.7-8.2c10.9-0.3,19.4-3.7,25.9-10.3l-1.7,10.8c0,0.1,0,0.2,0,0.3l2.5,2.4c12-6.4,21-18.2,25.3-33.2
	C262.5,283.4,261.3,267.2,254.7,255.5z M176,244.4c-5.2,0-9.5-4.3-9.5-9.6s4.3-9.6,9.5-9.6s9.5,4.3,9.5,9.6S181.2,244.4,176,244.4z"
	/>
<ellipse class="st1" cx="176" cy="234.8" rx="9.5" ry="9.6"/>
</svg>
