<?xml version="1.0" encoding="utf-8"?>
<!-- Generator: Adobe Illustrator 23.0.3, SVG Export Plug-In . SVG Version: 6.00 Build 0)  -->
<svg version="1.1" id="Layer_1" xmlns="http://www.w3.org/2000/svg" xmlns:xlink="http://www.w3.org/1999/xlink" x="0px" y="0px"
	 viewBox="0 0 450 356" style="enable-background:new 0 0 450 356;" xml:space="preserve">
<style type="text/css">
	.st0{fill:#D0D3CF;}
	.st1{fill:#171A21;}
</style>
<g>
	<path class="st0" d="M436.3,272.8c-0.1-2.5-2.7-4.9-4.8-6.7c-9.6-7.9-19.3-15.8-28.8-23.5c-9.2-7.5-18.4-15-27.5-22.5
		c-18.8-15.5-41.7-24.9-70-28.7c-4.4-0.6-9-1-13.4-1.4c-2-0.2-4.1-0.4-6.1-0.6l-7.1-0.6h-0.1c-3.7,0.1-7.4,0.2-11.1,0.3
		c-8.2,0.3-16.7,0.5-25.1,0.2c-1,0-1.9,0-2.8,0l-0.4,0.5c-1.5-0.2-3-0.4-4.5-0.8c-5.7-1.5-12.9-3.8-19.2-8c-4.9-3.3-9.5-7.4-14-11.4
		c-3-2.7-6.2-5.5-9.4-8.1c-6.1-4.8-12.4-9.4-18.5-13.9c-2.7-2-5.4-3.9-8.1-5.9c-0.5-0.4-1.1-0.2-1.4,0.3v0.1
		c-0.2-0.1-0.3-0.3-0.5-0.4c-11.9-8.9-24.9-14.1-34.9-17.7l-12.6-4.5c-9.8-3.5-19.9-5.7-30.3-6.2c-18-0.9-35,1.6-52,7.5
		c-9,3.1-17.9,5.6-26.5,7.4c-5.2,1.1-6.2,5.1-6.8,9.1c-1.6,10.4,2.1,20.1,10.2,26.6c3.4,2.7,6.8,5.5,10.2,8.2
		c17.4,14,35.4,28.5,53.4,42.2c22.9,17.4,48.6,26.3,76.4,26.3c0.5,0,30.4-5.6,41.9-9c1.8-0.5,3.6-1.1,5.4-1.6l-20.4,127h134.7v-2.2
		c0-10.1,8.2-18.2,18.2-18.2h62.9c8.4-2.9,15.9-8.6,21.6-16.8c1.2-1.7,2.8-3.3,4.9-4.9c4.1-3.1,5.8-7.2,5-12.3
		c-0.6-3.4,0.6-6,3.4-7.7C436.5,289.5,436.8,281.3,436.3,272.8z"/>
</g>
<circle class="st1" cx="330.8" cy="242.8" r="9.9"/>
</svg>
