<?xml version="1.0" encoding="utf-8"?>
<!-- Generator: Adobe Illustrator 23.0.3, SVG Export Plug-In . SVG Version: 6.00 Build 0)  -->
<svg version="1.1" id="Layer_1" xmlns="http://www.w3.org/2000/svg" xmlns:xlink="http://www.w3.org/1999/xlink" x="0px" y="0px"
	 viewBox="0 0 450 356" style="enable-background:new 0 0 450 356;" xml:space="preserve">
<style type="text/css">
	.st0{fill:#CF3A22;}
	.st1{fill:#161B23;}
</style>
<path class="st0" d="M252.9,242.5c0-2.9-0.1-2.9-2.9-3c-5.3-0.1-7.6,0.2-7.2,7.1c0.1,2.4-0.1,2.5-2.5,2.5c-11.2,0-24.1,0-35.3,0
	c-1.5,0-2.5-0.4-3.1-1.8c-2.6-5.6-5.1-11.2-7.9-17.1c2.4,0,4.3,0,6.2,0c2.5,0,2.7-0.3,1.6-2.5c-5.9-11.8-11.7-23.6-17.7-35.3
	c-3.1-6-6.1-12.1-9.9-17.6c-8.7-12.4-20.8-20-35.4-23.6c-6.2-1.6-12.5-1.7-18.8-1.5c-1.4,0.1-2.4-0.4-3.4-1.4
	c-11.8-11.9-23.7-23.7-35.5-35.6c-0.4-0.4-0.7-0.7-1.1-1.1c-0.9-1-1.6-0.9-2.1,0.5c-1.9,5.1-3.9,10.2-5.9,15.3
	c-0.7,1.8-1.4,3.5-2.2,5.7c-7.6-7.6-15-14.9-22.6-22.5c-1.1,2.8-2.1,5.2-3,7.5c-3.8,9.9-7.6,19.7-11.3,29.6l-5.8,36.5v1.7h-0.3
	L0,356h156c12.7-0.1,23.9-4.4,33.3-13.1c4.5-4.2,7.5-9.4,10.6-14.6c3.7-6.3,7.5-12.6,11.3-18.8c1.3-2.2,1.2-2.3-1.2-3.2
	c-7.1-2.4-14.1-4.7-21.2-7.1c-0.6-0.2-1.3-0.5-1.9-1.1c0.7,0,1.5,0,2.2,0c20.1,0,40.2,0,60.3,0c3.3,0,3.3-0.1,3.3-3.4
	C252.8,287.9,252.9,251.2,252.9,242.5z"/>
<circle class="st1" cx="176.4" cy="243" r="7.8"/>
</svg>
