<?xml version="1.0" encoding="utf-8"?>
<!-- Generator: Adobe Illustrator 23.0.3, SVG Export Plug-In . SVG Version: 6.00 Build 0)  -->
<svg version="1.1" id="Layer_1" xmlns="http://www.w3.org/2000/svg" xmlns:xlink="http://www.w3.org/1999/xlink" x="0px" y="0px"
	 viewBox="0 0 450 356" style="enable-background:new 0 0 450 356;" xml:space="preserve">
<style type="text/css">
	.st0{fill:#448E64;}
</style>
<g>
	<path d="M197.7,226.9c-1-1.1-2.3-2.1-3.7-2.7c-0.6-0.3-1.2-0.5-1.8-0.6s-1.2-0.2-1.9-0.2c-5.2,0-9.6,4.3-9.6,9.6
		c0,5.3,4.3,9.6,9.6,9.6c5.2,0,9.6-4.2,9.6-9.6c0-1.7-0.5-3.2-1.2-4.6C198.4,227.9,198.1,227.4,197.7,226.9z"/>
	<path class="st0" d="M260.6,226c0-1.5,0-3,0-4.4c0.1-5.6,0.1-11.7-2.3-17.6c-3.1-7.6-12.8-15.9-23.5-17H26.5L0,356h164.9
		c24.5-3.9,45.9-14.7,63.9-32.3c5.5-5.4,12.3-13.1,14.1-22.9c1-5.3,0.7-11,0.5-16.4c-0.1-2.2-0.2-4.5-0.2-6.7
		c3.6-0.2,7.1-1.1,10.9-2c1.9-0.5,3.9-1,5.8-1.4c0.6-0.1,1-0.6,1-1.2c0-4.6,0-9.2,0-13.8C260.8,248.5,260.8,237.1,260.6,226z
		 M190.3,242.5c-5.2,0-9.6-4.2-9.6-9.6c0-5.2,4.3-9.6,9.6-9.6c0.7,0,1.3,0.1,1.9,0.2c0.6,0.1,1.2,0.3,1.8,0.6
		c1.4,0.6,2.7,1.6,3.7,2.7c0.4,0.5,0.7,1,1,1.5c0.7,1.4,1.2,2.9,1.2,4.6C199.9,238.4,195.6,242.5,190.3,242.5z"/>
</g>
</svg>
